<mxfile host="app.diagrams.net" modified="2024-06-18T18:28:03.370Z" agent="Mozilla/5.0 (Windows NT 10.0; Win64; x64) AppleWebKit/537.36 (KHTML, like Gecko) Chrome/126.0.0.0 Safari/537.36" version="24.5.5" etag="Ho7kxJD8thYAA6BU14bF" type="github">
  <diagram name="Page-1" id="o3qVc1KRGDMXkPvahl4T">
    <mxGraphModel>
      <root>
        <mxCell id="0" />
        <mxCell id="1" parent="0" />
      </root>
    </mxGraphModel>
  </diagram>
</mxfile>
